<?xml version="1.0" standalone="no"?>
<!DOCTYPE svg PUBLIC "-//W3C//DTD SVG 20010904//EN"
 "http://www.w3.org/TR/2001/REC-SVG-20010904/DTD/svg10.dtd">
<svg version="1.0" xmlns="http://www.w3.org/2000/svg"
 width="1920.000000pt" height="1920.000000pt" viewBox="0 0 1920.000000 1920.000000"
 preserveAspectRatio="xMidYMid meet">
<metadata>
Created by potrace 1.14, written by Peter Selinger 2001-2017
</metadata>
<g transform="translate(0.000000,1920.000000) scale(0.100000,-0.100000)"
fill="#000000" stroke="none">
<path d="M2 9653 l3 -3787 943 -1 c526 0 946 4 949 9 8 12 6 182 -2 195 -3 6
-3 11 2 11 7 0 9 57 3 85 -1 6 -1 15 0 20 2 13 2 97 0 110 -1 6 -1 15 0 20 5
26 1 225 -5 234 -3 6 -3 11 2 11 7 0 9 57 3 85 -1 6 -1 15 0 20 2 13 2 97 0
110 -1 6 -1 15 0 20 1 6 1 55 1 110 -1 461 0 830 4 833 2 3 0 12 -5 22 -5 10
-6 20 -3 24 6 6 8 86 3 111 -1 6 -1 15 0 20 5 26 1 225 -5 234 -3 6 -3 11 2
11 7 0 9 57 3 85 -1 6 -2 15 -1 20 3 14 3 128 1 140 -1 6 -1 15 0 20 2 13 2
97 0 110 -1 6 -1 15 0 20 5 26 1 225 -5 234 -3 6 -3 11 2 11 7 0 9 57 3 85 -1
6 -1 15 0 20 2 13 2 97 0 110 -1 6 -1 15 0 20 5 26 1 225 -5 234 -3 6 -3 11 2
11 7 0 9 57 3 85 -1 6 -1 15 0 20 2 13 2 97 0 110 -1 6 -1 15 0 20 5 26 1 225
-5 234 -3 6 -3 11 2 11 7 0 9 57 3 85 -1 6 -1 15 0 20 2 13 2 97 0 110 -1 6
-1 15 0 20 1 6 1 57 1 114 0 57 1 102 3 100 4 -4 105 -173 146 -244 9 -16 31
-54 49 -83 17 -29 31 -57 31 -62 0 -4 3 -10 8 -12 10 -4 92 -144 92 -156 0 -6
4 -12 8 -14 8 -3 45 -63 100 -163 9 -16 20 -31 25 -33 4 -2 7 -8 7 -13 0 -7
158 -280 209 -359 8 -14 14 -28 13 -32 -1 -5 3 -8 8 -8 6 0 10 -7 10 -15 0 -8
5 -15 10 -15 6 0 10 -4 10 -10 0 -5 27 -55 60 -110 33 -55 60 -105 60 -110 0
-6 4 -10 9 -10 5 0 13 -10 17 -22 3 -13 12 -30 19 -38 6 -8 23 -35 36 -60 13
-25 27 -47 30 -50 4 -3 16 -23 28 -45 12 -22 33 -58 46 -80 14 -22 28 -47 32
-55 4 -8 29 -50 55 -93 26 -43 48 -81 48 -83 0 -3 13 -25 30 -49 16 -24 30
-46 30 -49 0 -6 103 -180 111 -186 3 -3 12 -20 20 -37 8 -18 17 -33 21 -33 5
0 8 -6 8 -14 0 -7 8 -24 18 -37 10 -13 32 -49 48 -79 16 -30 33 -59 37 -65 18
-23 137 -229 137 -237 0 -4 5 -8 10 -8 6 0 10 -4 10 -9 0 -11 58 -113 106
-188 19 -28 34 -54 34 -56 0 -3 18 -35 40 -71 22 -36 40 -70 40 -76 0 -5 5
-10 10 -10 6 0 10 -4 10 -9 0 -5 23 -46 50 -90 28 -44 50 -83 50 -86 0 -2 16
-29 35 -59 19 -30 35 -60 35 -66 0 -5 5 -10 10 -10 6 0 10 -4 10 -9 0 -4 57
-105 127 -222 69 -118 153 -261 187 -319 33 -58 63 -107 67 -110 4 -3 13 -17
19 -30 14 -32 33 -64 48 -82 6 -8 9 -18 5 -21 -3 -4 -1 -7 5 -7 7 0 12 -7 12
-15 0 -8 5 -15 10 -15 6 0 10 -6 10 -14 0 -7 7 -19 15 -26 8 -6 14 -15 12 -18
-1 -4 7 -19 17 -35 l18 -27 20 37 c11 21 24 40 29 41 5 2 9 8 9 14 0 10 215
378 251 430 11 15 19 30 19 33 0 3 16 31 35 61 19 30 35 56 35 59 0 2 32 57
71 122 66 108 81 134 121 204 7 13 18 31 24 39 6 8 22 35 35 60 13 25 27 47
30 50 4 3 16 23 28 45 12 22 26 47 31 55 25 40 150 253 150 257 0 2 12 22 27
46 38 58 51 79 60 97 4 8 32 58 64 110 191 321 279 472 279 479 0 5 4 11 8 13
4 2 19 23 33 48 52 93 72 125 105 177 19 29 34 57 34 62 0 5 6 16 13 23 7 7
24 33 38 58 85 150 123 215 129 220 3 3 16 25 29 50 13 25 30 52 37 61 8 8 14
18 14 22 0 3 32 58 70 122 39 64 70 118 70 120 0 2 18 33 40 67 22 35 40 68
40 75 0 6 4 13 8 15 11 4 82 123 82 137 0 6 5 11 10 11 6 0 10 5 10 10 0 6 11
27 24 48 23 36 142 237 177 299 16 28 37 64 76 128 60 101 150 252 156 265 4
8 16 29 27 45 11 17 29 49 41 72 11 23 26 46 32 52 9 7 12 -509 12 -2160 0
-1442 3 -2169 10 -2170 43 -4 7029 -3 7036 2 5 3 0 15 -11 27 -12 12 -18 22
-14 22 4 0 -1 9 -10 19 -20 22 -54 78 -62 104 -4 9 -10 17 -15 17 -5 0 -9 4
-9 9 0 8 -111 196 -128 216 -4 6 -23 38 -42 73 -19 34 -38 62 -42 62 -5 0 -8
4 -8 9 0 9 -63 118 -80 138 -5 7 -10 15 -10 19 0 3 -10 20 -22 37 -13 18 -23
34 -23 37 0 3 -8 16 -17 30 -60 95 -88 142 -88 150 0 6 -4 10 -10 10 -5 0 -10
5 -10 10 0 6 -12 29 -27 53 -15 23 -46 72 -68 109 -22 38 -71 120 -109 183
l-70 114 -2129 1 c-1172 0 -2133 2 -2136 5 -3 4 -6 368 -6 810 l0 804 1665 0
c916 0 1673 0 1683 1 17 0 17 2 -2 29 -12 16 -21 34 -21 40 0 6 -3 11 -8 11
-4 0 -18 21 -32 48 -14 26 -28 52 -33 57 -28 36 -144 235 -139 239 3 3 1 6 -5
6 -5 0 -18 18 -29 40 -10 22 -22 40 -26 40 -5 0 -8 7 -8 15 0 8 -4 15 -10 15
-5 0 -10 7 -10 15 0 8 -4 15 -10 15 -5 0 -10 5 -10 10 0 6 -12 29 -27 53 -15
23 -28 44 -28 47 0 3 -8 16 -17 30 -20 30 -223 363 -248 405 -9 17 -31 53 -48
80 -18 28 -37 61 -44 75 -7 14 -18 31 -25 38 -7 7 -13 19 -13 27 0 7 -7 15
-15 19 -8 3 -15 12 -15 21 0 9 -5 21 -10 28 -6 7 -16 20 -23 30 -12 18 -65 18
-1250 19 -680 0 -1238 3 -1238 6 -5 25 -3 1556 2 1563 3 6 326 9 798 10 l792
0 -7 21 c-4 12 -13 28 -20 36 -8 7 -14 20 -14 28 0 8 -5 14 -10 14 -6 0 -15
11 -20 25 -5 14 -26 50 -45 80 -19 31 -35 59 -35 64 0 5 -3 11 -8 13 -6 2
-135 211 -225 363 -7 11 -24 39 -39 63 -16 24 -28 45 -28 47 0 2 -27 47 -60
100 -33 53 -60 100 -60 105 0 4 -3 10 -8 12 -7 3 -182 290 -191 313 -2 5 -7
12 -10 15 -10 8 -71 111 -71 119 0 33 -31 35 -454 38 -231 1 -819 5 -1306 8
l-885 5 -52 -90 c-29 -50 -53 -96 -53 -101 0 -5 -4 -9 -10 -9 -5 0 -10 -4 -10
-10 0 -5 -20 -44 -45 -86 -25 -41 -45 -79 -45 -84 0 -4 -7 -13 -15 -20 -8 -7
-15 -21 -15 -30 0 -10 -4 -20 -9 -22 -4 -1 -50 -77 -101 -168 -51 -91 -100
-176 -109 -190 -9 -14 -65 -110 -125 -215 -59 -104 -112 -197 -117 -205 -43
-72 -139 -244 -139 -251 0 -5 -5 -9 -11 -9 -5 0 -8 -4 -4 -9 3 -5 1 -12 -4
-15 -5 -4 -31 -46 -57 -94 -26 -48 -50 -89 -53 -92 -7 -5 -49 -81 -66 -117 -5
-13 -13 -23 -17 -23 -5 0 -8 -4 -8 -9 0 -5 -32 -64 -70 -132 -39 -67 -70 -126
-70 -131 0 -4 -4 -8 -9 -8 -5 0 -11 -8 -14 -17 -6 -17 -41 -81 -86 -153 -12
-19 -24 -43 -27 -52 -4 -10 -11 -18 -17 -18 -6 0 -7 -3 -4 -6 4 -4 -2 -19 -13
-34 -11 -16 -20 -33 -20 -39 0 -6 -5 -11 -12 -11 -6 0 -8 -3 -5 -7 4 -3 1 -13
-7 -22 -7 -9 -28 -43 -46 -76 -17 -33 -35 -64 -40 -70 -4 -5 -20 -32 -35 -60
-29 -53 -87 -155 -119 -208 -10 -18 -34 -61 -54 -97 -19 -36 -43 -76 -52 -90
-9 -14 -36 -61 -60 -105 -24 -44 -46 -82 -50 -85 -3 -3 -19 -30 -34 -60 -16
-30 -34 -62 -42 -71 -8 -9 -12 -18 -9 -21 3 -3 -1 -11 -10 -18 -8 -7 -15 -17
-15 -22 0 -5 -7 -16 -15 -25 -8 -8 -13 -19 -10 -24 4 -5 3 -9 -2 -9 -4 0 -13
-10 -19 -23 -6 -12 -42 -76 -81 -142 -38 -66 -82 -142 -98 -170 -71 -130 -120
-212 -133 -227 -8 -10 -12 -18 -9 -18 4 0 -8 -24 -26 -52 -19 -29 -37 -60 -40
-68 -4 -8 -17 -31 -28 -50 -12 -19 -57 -98 -101 -175 -44 -77 -82 -141 -83
-143 -3 -3 -91 145 -115 193 -8 17 -20 36 -27 43 -7 7 -13 20 -13 28 0 8 -4
14 -10 14 -5 0 -10 9 -10 19 0 11 -4 21 -8 23 -5 2 -35 50 -68 108 -32 57 -64
114 -71 125 -7 11 -20 36 -30 55 -10 19 -22 40 -28 46 -5 6 -23 37 -40 70 -16
32 -33 61 -36 64 -9 9 -89 151 -89 160 0 5 -3 10 -8 12 -4 2 -23 33 -42 70
-19 37 -38 68 -42 68 -5 0 -8 4 -8 9 0 8 -42 82 -264 469 -42 74 -76 138 -76
143 0 5 -4 9 -10 9 -5 0 -10 4 -10 9 0 4 -68 127 -151 272 -84 145 -163 284
-177 308 -14 25 -37 65 -52 90 -14 26 -29 53 -33 61 -4 8 -16 29 -26 45 -17
28 -103 176 -159 275 -14 25 -36 62 -49 82 -12 21 -23 40 -23 43 0 3 -20 38
-43 78 -24 39 -47 79 -50 87 -4 8 -34 60 -67 115 -33 55 -70 120 -83 145 -13
25 -48 86 -77 135 -29 50 -62 108 -74 130 -12 22 -26 46 -33 53 -6 6 -15 22
-19 35 -3 12 -12 28 -18 36 -11 14 -77 127 -98 171 -7 14 -15 27 -18 30 -5 5
-16 23 -57 99 -14 25 -29 51 -33 56 -4 6 -19 30 -32 55 -14 25 -48 85 -77 134
-28 49 -51 93 -51 97 0 5 -5 9 -12 9 -6 0 -8 3 -5 7 4 3 1 13 -7 22 -8 9 -26
39 -41 66 -14 28 -34 64 -44 80 l-18 30 -951 3 -952 2 2 -3787z"/>
<path d="M10130 13418 c0 -9 40 -81 49 -88 3 -3 13 -18 21 -35 8 -16 18 -32
21 -35 3 -3 16 -25 30 -50 13 -25 28 -49 32 -55 12 -15 147 -236 147 -241 0
-2 32 -53 70 -115 39 -61 70 -115 70 -120 0 -5 5 -9 10 -9 6 0 10 -5 10 -10 0
-6 23 -47 50 -91 28 -44 50 -85 50 -90 0 -5 3 -9 8 -9 7 0 21 -22 44 -72 7
-16 16 -28 20 -28 4 0 8 -7 8 -15 0 -8 3 -15 8 -15 7 0 13 -10 42 -66 8 -16
17 -31 20 -34 3 -3 13 -18 23 -35 10 -16 45 -76 78 -133 l61 -102 1267 0 c696
1 1314 1 1374 0 l107 0 1 -2327 0 -2328 44 -70 c24 -38 64 -106 90 -150 27
-44 53 -83 59 -87 6 -4 8 -8 3 -8 -4 0 8 -21 25 -48 18 -26 42 -64 52 -85 11
-20 23 -37 28 -37 4 0 8 -5 8 -11 0 -6 29 -58 65 -116 36 -57 65 -106 65 -108
0 -2 14 -24 30 -48 17 -25 30 -47 30 -50 0 -3 18 -33 40 -66 22 -33 40 -65 40
-71 0 -5 5 -10 11 -10 5 0 8 -4 5 -9 -4 -5 -2 -11 2 -13 7 -2 105 -158 122
-193 3 -5 17 -29 33 -52 15 -24 27 -47 27 -52 0 -5 3 -11 8 -13 4 -1 40 -58
81 -125 40 -68 76 -123 80 -123 7 0 54 76 186 296 11 18 61 99 110 179 50 80
95 153 100 163 6 9 42 69 80 132 38 63 74 123 80 132 5 10 40 67 78 128 37 60
67 114 67 119 0 5 4 11 8 13 4 2 61 89 125 194 l117 192 0 2326 0 2326 343 0
c188 0 788 0 1332 0 l991 0 99 165 c55 92 105 172 112 180 7 7 14 19 15 26 2
7 6 18 11 24 15 21 54 83 121 195 38 63 89 145 113 182 24 37 43 69 43 72 0 4
44 78 130 216 86 140 156 258 158 268 2 6 7 12 11 12 4 0 16 18 26 40 10 22
21 40 25 40 4 0 10 8 12 18 5 16 -216 17 -4529 17 -2493 0 -4533 -3 -4533 -7z"/>
</g>
</svg>
